<svg width="793" height="545" viewBox="0 0 793 545" fill="none" xmlns="http://www.w3.org/2000/svg">
<path d="M791.742 251.03L792.041 286.076L760.923 304.041L730.254 286.53L730.423 251.214L761.541 233.248L791.742 251.03Z" fill="#B2B0B0" fill-opacity="0.54"/>
<path d="M546.66 433.293L546.709 467.906L515.591 485.872L485.172 468.793L485.591 433.911L516.709 415.945L546.66 433.293Z" fill="#B2B0B0" fill-opacity="0.26"/>
<path d="M580.838 491.73L581.136 526.776L550.019 544.742L519.35 527.23L519.519 491.915L550.636 473.949L580.838 491.73Z" fill="#717171" fill-opacity="0.37"/>
<path d="M580.777 255.628L580.826 290.241L549.708 308.207L519.29 291.128L519.708 256.245L550.826 238.28L580.777 255.628Z" fill="#858585" fill-opacity="0.51"/>
<path d="M166.277 261.691L166.325 296.304L135.208 314.27L104.789 297.191L105.208 262.308L136.325 244.342L166.277 261.691Z" fill="#858585" fill-opacity="0.51"/>
<path d="M683.66 311.293L683.709 345.906L652.591 363.872L622.172 346.793L622.591 311.911L653.709 293.945L683.66 311.293Z" fill="#787878"/>
<path d="M786.971 488.766L787.019 523.379L755.902 541.345L725.483 524.266L725.902 489.383L757.019 471.417L786.971 488.766Z" fill="#B2B0B0" fill-opacity="0.54"/>
<path d="M375.355 139.825L375.404 174.438L344.286 192.404L313.867 175.325L314.286 140.442L345.404 122.476L375.355 139.825Z" fill="#858585" fill-opacity="0.3"/>
<path d="M579.316 373.097L579.365 407.71L548.247 425.675L517.829 408.597L518.247 373.714L549.365 355.748L579.316 373.097Z" fill="#858585" fill-opacity="0.51"/>
<path d="M581.49 136.86L581.789 171.906L550.671 189.872L520.002 172.36L520.171 137.045L551.289 119.079L581.49 136.86Z" fill="#858585" fill-opacity="0.12"/>
<path d="M166.738 142.49L166.786 177.103L135.669 195.069L105.25 177.99L105.669 143.108L136.786 125.142L166.738 142.49Z" fill="#858585" fill-opacity="0.51"/>
<path d="M478.566 198.593L478.865 233.639L447.747 251.604L417.078 234.093L417.247 198.777L448.365 180.811L478.566 198.593Z" fill="#858585" fill-opacity="0.1"/>
<path d="M64.6812 203.722L64.7297 238.335L33.6121 256.301L3.19336 239.222L3.61206 204.34L34.7297 186.374L64.6812 203.722Z" fill="#717171" fill-opacity="0.37"/>
<path d="M684.51 431.297L684.558 465.91L653.441 483.876L623.022 466.797L623.441 431.915L654.558 413.949L684.51 431.297Z" fill="#717171" fill-opacity="0.37"/>
<path d="M684.701 195.628L684.75 230.241L653.632 248.207L623.213 231.128L623.632 196.245L654.75 178.28L684.701 195.628Z" fill="#717171" fill-opacity="0.37"/>
<path d="M270.816 200.758L271.115 235.804L239.997 253.77L209.328 236.258L209.497 200.942L240.615 182.976L270.816 200.758Z" fill="#858585" fill-opacity="0.1"/>
<path d="M443.91 137.726L444.208 172.772L413.091 190.738L382.422 173.226L382.591 137.911L413.708 119.945L443.91 137.726Z" fill="#363636" fill-opacity="0.13"/>
<path d="M61.4878 322.191L61.5364 356.804L30.4187 374.77L0 357.691L0.418698 322.808L31.5364 304.842L61.4878 322.191Z" fill="#717171" fill-opacity="0.37"/>
<path d="M478.162 79.8919L478.46 114.938L447.343 132.904L416.674 115.392L416.843 80.0762L447.96 62.1104L478.162 79.8919Z" fill="#858585" fill-opacity="0.06"/>
<path d="M63.4097 85.5216L63.4583 120.135L32.3406 138.1L1.92188 121.022L2.34057 86.1389L33.4583 68.1731L63.4097 85.5216Z" fill="#717171" fill-opacity="0.37"/>
<path d="M268.238 318.293L268.076 353.028L236.52 371.247L205.884 354.293L206.52 319.285L238.076 301.066L268.238 318.293Z" fill="#858585" fill-opacity="0.68"/>
<path d="M684.297 76.9274L684.345 111.54L653.228 129.506L622.809 112.427L623.228 77.5447L654.345 59.5789L684.297 76.9274Z" fill="#717171" fill-opacity="0.37"/>
<path d="M269.544 82.5572L269.843 117.603L238.725 135.569L208.057 118.057L208.225 82.7414L239.343 64.7756L269.544 82.5572Z" fill="#858585" fill-opacity="0.26"/>
<path d="M443.546 21.9352L443.595 56.5482L412.477 74.514L382.059 57.4352L382.477 22.5525L413.595 4.58667L443.546 21.9352Z" fill="#717171" fill-opacity="0.37"/>
<path d="M647.508 255.207L647.556 289.82L616.439 307.786L586.02 290.707L586.439 255.824L617.556 237.858L647.508 255.207Z" fill="#717171" fill-opacity="0.12"/>
<path d="M649.43 18.5377L649.478 53.1507L618.361 71.1165L587.942 54.0377L588.361 19.155L619.478 1.18921L649.43 18.5377Z" fill="#717171" fill-opacity="0.37"/>
<path d="M130.66 201.293L130.708 235.906L99.5906 253.872L69.1719 236.793L69.5906 201.911L100.708 183.945L130.66 201.293Z" fill="#4B4B4B" fill-opacity="0.46"/>
<path d="M440.527 374.707L440.575 409.32L409.458 427.286L379.039 410.207L379.458 375.324L410.575 357.358L440.527 374.707Z" fill="#717171" fill-opacity="0.37"/>
<path d="M646.662 371.742L646.961 406.788L615.843 424.754L585.174 407.242L585.343 371.927L616.461 353.961L646.662 371.742Z" fill="#717171" fill-opacity="0.37"/>
<path d="M370.91 377.726L371.208 412.772L340.091 430.738L309.422 413.226L309.591 377.911L340.708 359.945L370.91 377.726Z" fill="#B2B0B0" fill-opacity="0.07"/>
<path d="M341.91 200.726L342.208 235.772L311.091 253.738L280.422 236.226L280.591 200.911L311.708 182.945L341.91 200.726Z" fill="#B2B0B0" fill-opacity="0.09"/>
<path d="M338.66 317.293L338.708 351.906L307.591 369.872L277.172 352.793L277.591 317.911L308.708 299.945L338.66 317.293Z" fill="#363636" fill-opacity="0.21"/>
<path d="M544.451 314.707L544.5 349.32L513.382 367.286L482.963 350.207L483.382 315.324L514.5 297.358L544.451 314.707Z" fill="#717171" fill-opacity="0.37"/>
<path d="M131.623 83.6675L131.921 118.714L100.803 136.679L70.1348 119.168L70.3035 83.8518L101.421 65.886L131.623 83.6675Z" fill="#888888" fill-opacity="0.32"/>
<path d="M510.91 375.726L511.209 410.772L480.091 428.738L449.422 411.226L449.591 375.911L480.709 357.945L510.91 375.726Z" fill="#B2B0B0" fill-opacity="0.06"/>
<path d="M374.66 259.293L374.708 293.906L343.591 311.872L313.172 294.793L313.591 259.911L344.708 241.945L374.66 259.293Z" fill="#4B4B4B" fill-opacity="0.03"/>
<path d="M444.525 258.293L444.363 293.028L412.807 311.247L382.171 294.293L382.807 259.285L414.363 241.066L444.525 258.293Z" fill="#B2B0B0" fill-opacity="0.15"/>
<path d="M409.66 199.293L409.708 233.906L378.591 251.872L348.172 234.793L348.591 199.911L379.708 181.945L409.66 199.293Z" fill="#717171" fill-opacity="0.37"/>
<path d="M615.66 196.293L615.709 230.906L584.591 248.872L554.172 231.793L554.591 196.911L585.709 178.945L615.66 196.293Z" fill="#B2B0B0" fill-opacity="0.12"/>
<path d="M406.662 318.049L406.71 352.662L375.593 370.628L345.174 353.549L345.593 318.666L376.71 300.701L406.662 318.049Z" fill="#6D6D6D" fill-opacity="0.83"/>
<path d="M234.66 260.293L234.708 294.906L203.591 312.872L173.172 295.793L173.591 260.911L204.708 242.945L234.66 260.293Z" fill="#B2B0B0" fill-opacity="0.26"/>
<path d="M408.833 81.813L409.132 116.859L378.014 134.825L347.346 117.313L347.514 81.9973L378.632 64.0315L408.833 81.813Z" fill="#717171" fill-opacity="0.37"/>
<path d="M236.525 143.293L236.363 178.028L204.807 196.247L174.171 179.293L174.807 144.285L206.363 126.066L236.525 143.293Z" fill="#B2B0B0" fill-opacity="0.04"/>
<path d="M613.797 313.085L614.095 348.131L582.978 366.097L552.309 348.585L552.478 313.269L583.595 295.303L613.797 313.085Z" fill="#717171" fill-opacity="0.99"/>
<path d="M198.91 320.214L198.958 354.827L167.841 372.793L137.422 355.714L137.841 320.832L168.958 302.866L198.91 320.214Z" fill="#717171" fill-opacity="0.37"/>
<path d="M200.216 84.4783L200.515 119.524L169.397 137.49L138.729 119.978L138.897 84.6626L170.015 66.6968L200.216 84.4783Z" fill="#717171" fill-opacity="0.37"/>
<path d="M302.91 142.726L303.208 177.772L272.091 195.738L241.422 178.226L241.591 142.911L272.708 124.945L302.91 142.726Z" fill="#030303" fill-opacity="0.08"/>
<path d="M512.047 140.581L512.095 175.194L480.978 193.16L450.559 176.081L450.978 141.198L482.095 123.232L512.047 140.581Z" fill="#717171" fill-opacity="0.59"/>
<path d="M717.99 373.285L718.289 408.331L687.171 426.297L656.502 408.785L656.671 373.47L687.789 355.504L717.99 373.285Z" fill="#717171" fill-opacity="0.37"/>
<path d="M302.66 376.293L302.708 410.906L271.591 428.872L241.172 411.793L241.591 376.911L272.708 358.945L302.66 376.293Z" fill="#565656" fill-opacity="0.73"/>
<path d="M511.451 257.549L511.5 292.162L480.382 310.128L449.963 293.049L450.382 258.166L481.5 240.201L511.451 257.549Z" fill="#717171" fill-opacity="0.37"/>
<path d="M96.4487 262.746L96.4973 297.359L65.3796 315.325L34.9609 298.246L35.3796 263.363L66.4973 245.397L96.4487 262.746Z" fill="#717171" fill-opacity="0.37"/>
<path d="M717.145 489.821L717.193 524.434L686.075 542.4L655.657 525.321L656.075 490.438L687.193 472.472L717.145 489.821Z" fill="#717171" fill-opacity="0.37"/>
<path d="M717.336 254.152L717.385 288.765L686.267 306.731L655.848 289.652L656.267 254.769L687.385 236.803L717.336 254.152Z" fill="#717171" fill-opacity="0.37"/>
<path d="M302.583 259.782L302.882 294.828L271.764 312.793L241.096 295.282L241.264 259.966L272.382 242L302.583 259.782Z" fill="#717171" fill-opacity="0.37"/>
<path d="M721.49 17.3485L721.539 51.9615L690.421 69.9273L660.002 52.8485L660.421 17.9658L691.539 0L721.49 17.3485Z" fill="#717171" fill-opacity="0.37"/>
<path d="M304.755 23.5453L304.804 58.1583L273.686 76.1241L243.268 59.0453L243.686 24.1626L274.804 6.19678L304.755 23.5453Z" fill="#717171" fill-opacity="0.37"/>
<path d="M474.507 434.293L474.556 468.906L443.438 486.872L413.02 469.793L413.438 434.911L444.556 416.945L474.507 434.293Z" fill="#4B4B4B" fill-opacity="0.49"/>
<path d="M163.91 380.726L164.208 415.772L133.091 433.738L102.422 416.226L102.591 380.911L133.708 362.945L163.91 380.726Z" fill="#717171" fill-opacity="0.37"/>
</svg>
